<?xml version="1.0" encoding="UTF-8" standalone="no"?>
<!-- Generator: Adobe Illustrator 19.1.0, SVG Export Plug-In . SVG Version: 6.00 Build 0)  -->

<svg
   xmlns:dc="http://purl.org/dc/elements/1.1/"
   xmlns:cc="http://creativecommons.org/ns#"
   xmlns:rdf="http://www.w3.org/1999/02/22-rdf-syntax-ns#"
   xmlns:svg="http://www.w3.org/2000/svg"
   xmlns="http://www.w3.org/2000/svg"
   xmlns:sodipodi="http://sodipodi.sourceforge.net/DTD/sodipodi-0.dtd"
   xmlns:inkscape="http://www.inkscape.org/namespaces/inkscape"
   version="1.1"
   id="Layer_1"
   x="0px"
   y="0px"
   viewBox="0 0 30 30"
   enable-background="new 0 0 30 30"
   xml:space="preserve"
   inkscape:version="0.91 r13725"
   width="100%"
   height="100%"
   sodipodi:docname="Gear-Icon-white-2.svg"><metadata
     id="metadata13"><rdf:RDF><cc:Work
         rdf:about=""><dc:format>image/svg+xml</dc:format><dc:type
           rdf:resource="http://purl.org/dc/dcmitype/StillImage" /><dc:title></dc:title></cc:Work></rdf:RDF></metadata><defs
     id="defs11" /><sodipodi:namedview
     pagecolor="#ffffff"
     bordercolor="#666666"
     borderopacity="1"
     objecttolerance="10"
     gridtolerance="10"
     guidetolerance="10"
     inkscape:pageopacity="0"
     inkscape:pageshadow="2"
     inkscape:window-width="1387"
     inkscape:window-height="897"
     id="namedview9"
     showgrid="false"
     inkscape:zoom="7.8666667"
     inkscape:cx="-3.9406779"
     inkscape:cy="15"
     inkscape:window-x="65"
     inkscape:window-y="24"
     inkscape:window-maximized="0"
     inkscape:current-layer="Layer_1" /><g
     opacity="0.5"
     id="g3"><g
       id="g5"><path
         fill-rule="evenodd"
         clip-rule="evenodd"
         fill="#FFFFFF"
         stroke="#332D2E"
         stroke-width="2"
         stroke-miterlimit="10"
         d="    M28.8,13.5c0-0.4-0.5-0.7-0.9-0.7c-1.3,0-2.4-0.7-2.9-1.9c-0.5-1.2-0.2-2.6,0.8-3.4c0.3-0.3,0.3-0.7,0.1-1.1    c-0.7-0.8-1.4-1.6-2.2-2.2c-0.3-0.3-0.8-0.2-1.1,0.1c-0.8,0.9-2.3,1.3-3.5,0.8c-1.2-0.5-2-1.7-1.9-3c0-0.4-0.3-0.8-0.7-0.8    c-1-0.1-2.1-0.1-3.1,0c-0.4,0-0.7,0.4-0.7,0.8c0,1.3-0.7,2.5-1.9,3C9.8,5.4,8.3,5.1,7.4,4.1C7.2,3.8,6.7,3.8,6.4,4.1    C5.6,4.7,4.8,5.5,4.1,6.3C3.9,6.6,3.9,7.1,4.2,7.3c1,0.9,1.3,2.3,0.8,3.5c-0.5,1.1-1.7,1.9-3,1.9c-0.4,0-0.8,0.3-0.8,0.7    c-0.1,1-0.1,2.1,0,3.2c0,0.4,0.5,0.7,0.9,0.7c1.2,0,2.4,0.7,2.9,1.9c0.5,1.2,0.2,2.6-0.8,3.4c-0.3,0.3-0.3,0.7-0.1,1    c0.6,0.8,1.4,1.6,2.2,2.2c0.3,0.3,0.8,1,1.1,0.7c0.8-0.9,2.3-2.1,3.5-1.6c1.2,0.5,2,1.7,1.9,3c0,0.4,0.3,0.8,0.7,0.8    c0.5,0.1,1.1,0.1,1.6,0.1c0.5,0,1,0,1.5-0.1c0.4,0,0.7-0.4,0.7-0.8c0-1.3,0.7-2.5,1.9-3c1.1-0.5,2.6-0.1,3.4,0.8    c0.3,0.3,0.7,0.3,1.1,0.1c0.8-0.7,0.8-0.6,1.4-1.4c0.3-0.3,1-1.6,0.7-1.9c-1-0.9-1.3-2.3-0.8-3.5c0.5-1.1,1.6-1.9,2.8-1.9l0.2,0    c0.4,0,0.8-0.3,0.8-0.7C29,15.6,29,14.5,28.8,13.5L28.8,13.5z M15,19.7c-2.6,0-4.6-2.1-4.6-4.6c0-2.6,2.1-4.6,4.6-4.6    c2.6,0,4.6,2.1,4.6,4.6C19.7,17.6,17.6,19.7,15,19.7L15,19.7z M15,19.7"
         id="path7" /></g></g><path
     style="fill:#202020;stroke:#202020;stroke-opacity:1;fill-opacity:1"
     d="m 13.791674,27.084965 c -0.145508,-1.22859 -1.028061,-2.43515 -2.200971,-3.009 -0.599876,-0.293493 -0.8051,-0.33027 -1.546845,-0.277198 -0.93295,0.06675 -1.334848,0.232716 -2.2439345,0.926638 L 7.2015822,25.18213 6.6707064,24.720186 C 6.3787247,24.466116 5.9330165,24.028392 5.6802439,23.747466 L 5.2206572,23.236692 5.6424093,22.536303 C 6.7026913,20.77553 6.4354006,18.770061 4.9560069,17.386261 4.3497198,16.81915 3.1877567,16.271186 2.591481,16.271186 c -0.2671364,0 -0.3026777,-0.06768 -0.3504403,-0.667372 -0.029234,-0.367056 -0.031073,-0.932617 -0.00408,-1.256804 0.048069,-0.577423 0.059331,-0.591072 0.5528301,-0.669985 1.748392,-0.279579 3.2638736,-1.83602 3.485457,-3.579658 C 6.3835831,9.2448376 6.062334,7.986928 5.5477489,7.2487299 L 5.1510622,6.6796632 5.9980581,5.8928436 6.8450542,5.106024 7.4733866,5.5288604 C 8.6195741,6.3001876 10.387596,6.4626582 11.515998,5.9003519 12.666722,5.326922 13.70339,3.7934644 13.70339,2.664723 l 0,-0.3765874 1.182193,0 1.182195,0 0.152888,0.7309322 c 0.317972,1.5201646 1.370826,2.7246854 2.74944,3.1455076 1.26524,0.3862142 2.73269,0.1572746 3.759472,-0.5865218 l 0.550843,-0.3990288 0.814108,0.8384433 0.814109,0.8384433 -0.385718,0.4809426 c -0.523564,0.6528202 -0.777157,1.4356139 -0.777157,2.3989359 0,2.0642231 1.445618,3.7557891 3.469022,4.0592171 l 0.568769,0.08529 0.0568,0.59163 c 0.03124,0.325396 0.03247,0.799785 0.0027,1.054198 -0.05276,0.45148 -0.07152,0.466004 -0.78305,0.605988 -0.874198,0.171989 -1.696097,0.668045 -2.325846,1.403766 -0.637743,0.745059 -0.899194,1.340738 -0.96363,2.195487 -0.08135,1.0792 0.06397,1.766529 0.541015,2.558735 l 0.427664,0.710207 -0.360849,0.544336 c -0.198467,0.299385 -0.530259,0.706458 -0.737318,0.904607 l -0.376469,0.360269 -0.542939,-0.393302 c -1.49158,-1.080495 -3.569792,-1.009024 -5.011501,0.172348 -0.632781,0.518516 -1.278532,1.691271 -1.408506,2.558 l -0.08477,0.565295 -1.175486,0 -1.175488,0 -0.07425,-0.626899 z m 2.79701,-6.555666 c 2.716524,-0.806722 4.38149,-3.38416 3.993708,-6.182438 -0.646098,-4.6623275 -6.383795,-6.5372301 -9.663489,-3.15773 -1.6773256,1.72837 -2.0281167,4.4378 -0.865137,6.682119 0.281035,0.542342 1.135738,1.474975 1.727641,1.885164 1.284733,0.890319 3.313491,1.216491 4.807277,0.772885 l 0,0 z"
     id="path2990"
     inkscape:connector-curvature="0" /><path
     style="fill:#202020;fill-opacity:1"
     d="m 14.455989,18.546268 c -1.682173,-0.25079 -2.928558,-1.694549 -2.925633,-3.388928 0.0016,-0.926746 0.155312,-1.434694 0.629126,-2.078982 1.593235,-2.166463 4.741832,-1.927592 5.955569,0.451824 1.31486,2.577656 -0.777294,5.44572 -3.659062,5.016086 z"
     id="path2992"
     inkscape:connector-curvature="0" /><path
     style="fill:#ffffff"
     d="m 13.322034,29.609169 c -0.859919,-0.163463 -1.343472,-0.772013 -1.457186,-1.833866 -0.102292,-0.955181 -0.434901,-1.524374 -1.087469,-1.860976 -0.6295,-0.324703 -1.1793153,-0.126786 -2.2240243,0.800583 -0.7101958,0.630427 -0.9102492,0.742717 -1.3232088,0.742717 -0.4312946,0 -0.6240235,-0.123132 -1.6980276,-1.084847 C 4.1940394,25.1746 3.1896487,24.026849 3.0732039,23.562896 2.9410289,23.036269 3.1376746,22.449773 3.6572288,21.82104 4.4315034,20.88406 4.4964754,19.857257 3.8314949,19.066973 3.4151036,18.57212 2.9975254,18.361818 2.2008273,18.245729 1.4464881,18.135812 1.0393727,17.939997 0.61016949,17.48065 0.29749857,17.146021 0.29237288,17.106357 0.29237288,15.021539 c 0,-1.871451 0.0281932,-2.160594 0.24133473,-2.47507 C 0.84032914,12.094069 1.2742088,11.87082 2.0737087,11.754074 4.2303989,11.439146 4.9829062,9.5587396 3.5756125,8.0010337 3.0738642,7.4456583 2.9303748,6.8384286 3.1462908,6.1841967 3.3229457,5.6489272 5.5540606,3.4612147 6.2695543,3.1216906 6.8628192,2.840168 7.5936215,2.9533523 8.0009687,3.3898466 c 0.4923388,0.5275671 1.1693595,0.8050687 1.9641269,0.8050687 0.6535224,0 0.7586614,-0.039947 1.1236164,-0.4269126 0.418884,-0.444146 0.707557,-1.1827325 0.708373,-1.812412 6.23e-4,-0.4838351 0.409176,-1.13619301 0.851954,-1.36037555 0.86513,-0.43802217 4.135725,-0.35583841 4.786539,0.12027652 0.400837,0.29324023 0.716964,1.03555203 0.716964,1.68353623 0,0.5830727 0.395418,1.2208365 1.019975,1.6451002 0.373008,0.2533866 0.563467,0.2926936 1.221835,0.252164 0.680781,-0.04191 0.866645,-0.1142877 1.461865,-0.5692706 1.320404,-1.009312 1.969289,-0.8385726 3.721708,0.9792849 1.154711,1.1978304 1.345804,1.5156483 1.345804,2.238292 0,0.5323058 -0.157712,0.8659803 -0.660731,1.3979227 -0.745922,0.7888114 -0.700565,2.1097419 0.09993,2.9102349 0.409294,0.409294 0.570951,0.470923 1.67013,0.636706 0.667439,0.100666 1.312891,0.523501 1.549113,1.014822 0.242714,0.504822 0.332442,2.625779 0.14784,3.494587 -0.08164,0.384222 -0.256037,0.828465 -0.387552,0.987206 -0.293753,0.354564 -1.007193,0.66477 -1.528898,0.66477 -0.569027,0 -1.172081,0.290435 -1.559795,0.751207 -0.35054,0.416593 -0.645189,1.250438 -0.549514,1.555096 0.0298,0.09488 0.08838,0.328772 0.13019,0.519756 0.04181,0.190984 0.252153,0.547857 0.467435,0.79305 0.578211,0.658547 0.616981,1.255612 0.146776,2.260417 -0.430578,0.920123 -1.715938,2.374929 -2.374368,2.687374 -0.505302,0.239781 -1.247401,0.265366 -1.639843,0.05654 -0.152713,-0.08126 -0.498055,-0.324378 -0.767427,-0.540255 -0.440001,-0.35262 -0.578137,-0.392503 -1.359465,-0.392503 -0.818276,0 -0.896281,0.02576 -1.319279,0.435752 -0.47774,0.463043 -0.637238,0.84198 -0.771524,1.832998 -0.119527,0.8821 -0.666899,1.441218 -1.575197,1.609003 -0.806797,0.149034 -2.509595,0.143849 -3.319514,-0.01011 l 0,-3e-6 z m 3.099484,-2.383739 c 0.235732,-1.777033 1.740121,-3.236004 3.557724,-3.450316 0.944637,-0.111382 1.978143,0.215014 2.862054,0.903878 0.166737,0.129944 0.343736,0.236262 0.39333,0.236262 0.17805,0 1.173364,-1.089851 1.40475,-1.538177 0.236164,-0.457582 0.236149,-0.457757 -0.08124,-0.924843 -0.463476,-0.682065 -0.695152,-1.437024 -0.712674,-2.322375 -0.03588,-1.813266 1.632453,-3.682789 3.516981,-3.941091 0.547916,-0.0751 0.5557,-0.08314 0.598467,-0.618394 0.02383,-0.298268 0.02399,-0.827553 3.82e-4,-1.17619 l -0.04299,-0.633886 -0.572346,-0.07845 c -1.997461,-0.273778 -3.476222,-1.960123 -3.470182,-3.9572737 0.0018,-0.6026718 0.08183,-1.0641769 0.247922,-1.4300848 0.134877,-0.2971398 0.22265,-0.5402542 0.195052,-0.5402542 -0.0276,0 0.118207,-0.1843587 0.324012,-0.4096857 0.205805,-0.2253272 0.37419,-0.444638 0.37419,-0.4873573 0,-0.1480206 -1.62204,-1.7724485 -1.769842,-1.7724485 -0.08167,0 -0.288901,0.1404082 -0.460512,0.3120184 -0.17161,0.1716102 -0.312019,0.2848544 -0.312019,0.2516539 0,-0.033201 -0.235495,0.059776 -0.523322,0.2066143 -0.592112,0.3020733 -0.742516,0.3399034 -1.524793,0.3835219 -1.939458,0.1081412 -3.634625,-1.2411732 -4.09258,-3.257603 l -0.171781,-0.756375 -1.259564,0 -1.259564,0 -0.08572,0.5992676 C 13.383231,4.040391 12.409392,5.3846628 11.355179,5.8635492 10.320093,6.3337471 8.5993,6.0996543 7.4384258,5.330723 L 6.8417433,4.935497 6.2143119,5.4868163 C 5.8692245,5.7900419 5.4627037,6.1971283 5.3109323,6.3914527 5.0567878,6.7168532 5.0503201,6.768175 5.229075,7.0409894 c 0.1067498,0.1629209 0.2695351,0.3771123 0.3617451,0.4759808 0.09221,0.098869 0.190457,0.2642042 0.2183268,0.3674124 0.02787,0.1032082 0.1310095,0.4736682 0.2291992,0.8232445 0.3590654,1.2783479 -0.085744,2.7135949 -1.1541515,3.7240499 -0.6571736,0.621528 -1.7934259,1.170018 -2.4238085,1.170018 -0.2751438,0 -0.3050386,0.06062 -0.3448077,0.699152 -0.02395,0.384534 -0.02395,1.013772 0,1.398306 0.038927,0.625022 0.073546,0.699152 0.326504,0.699152 0.5938975,0 1.6084324,0.405838 2.2169212,0.88682 0.6978638,0.551631 1.3376008,1.688464 1.4827984,2.634983 0.1198748,0.781444 -0.1467177,1.850497 -0.6467628,2.59356 -0.2396444,0.35611 -0.4357172,0.686162 -0.4357172,0.733448 0,0.09026 1.5575568,1.628326 1.9355296,1.911311 0.1883986,0.141054 0.3074582,0.09966 0.8419468,-0.292687 1.8400598,-1.350728 3.2217716,-1.311302 4.7661726,0.135998 0.627591,0.588134 1.150032,1.725145 1.113844,2.424109 l -0.02139,0.413136 1.32235,0 1.322352,0 0.08139,-0.613553 0,0 z"
     id="path2994"
     inkscape:connector-curvature="0" /><path
     style="fill:#ffffff"
     d="m 13.322034,20.360291 c -0.818888,-0.305239 -1.550946,-0.714908 -1.831143,-1.02473 -0.133187,-0.147271 -0.319098,-0.267764 -0.413135,-0.267764 -0.09404,0 -0.170976,-0.0788 -0.170976,-0.175113 0,-0.09631 -0.08399,-0.244815 -0.186634,-0.330005 -0.102648,-0.08519 -0.331298,-0.413727 -0.508112,-0.73008 -0.9405562,-1.682839 -0.9412797,-3.690378 -0.002,-5.506775 0.192291,-0.371851 1.840797,-2.142961 1.840797,-1.977704 0,0.03385 0.311199,-0.08093 0.691554,-0.25506 1.376777,-0.6303094 3.132279,-0.6496608 4.489077,-0.04948 0.299749,0.132593 0.562926,0.229467 0.584839,0.215276 0.108756,-0.07043 1.652604,1.554401 1.935351,2.036873 0.900829,1.537148 1.003552,3.559932 0.262936,5.17765 -0.264055,0.576771 -1.60327,2.233274 -1.800384,2.226933 -0.03539,-0.0011 -0.244667,0.09118 -0.465064,0.205152 -1.362608,0.704632 -3.239618,0.897471 -4.427122,0.454831 z m 3.403096,-2.040357 c 0.645768,-0.329446 1.232968,-0.915804 1.58902,-1.586741 0.388906,-0.732846 0.394707,-2.308629 0.01157,-3.142861 -0.341918,-0.744483 -1.069817,-1.472399 -1.814355,-1.814401 -0.840747,-0.386194 -2.284437,-0.37283 -3.063739,0.02836 -1.660564,0.854872 -2.410778,2.589513 -1.915471,4.428943 0.18537,0.688413 0.914246,1.6136 1.57738,2.002222 1.006333,0.58975 2.554286,0.625918 3.615596,0.08448 l 0,0 z"
     id="path2996"
     inkscape:connector-curvature="0" /></svg>